<?xml version="1.0" standalone="no"?>
<!DOCTYPE svg PUBLIC "-//W3C//DTD SVG 20010904//EN"
 "http://www.w3.org/TR/2001/REC-SVG-20010904/DTD/svg10.dtd">
<svg version="1.0" xmlns="http://www.w3.org/2000/svg"
 width="334.000000pt" height="100.000000pt" viewBox="0 0 334.000000 100.000000"
 preserveAspectRatio="xMidYMid meet">

<g transform="translate(0.000000,100.000000) scale(0.100000,-0.100000)"
fill="#5E3283" stroke="none">
<path d="M2215 970 c-27 -11 -173 -60 -322 -110 l-273 -92 0 -51 0 -52 -60
-32 -60 -32 0 120 0 119 -50 0 c-36 0 -50 -4 -50 -14 0 -8 5 -16 11 -18 6 -2
9 -17 7 -34 l-3 -31 -210 58 c-115 31 -212 54 -215 50 -3 -4 -44 -57 -92 -118
-49 -61 -88 -114 -88 -117 0 -3 10 -6 23 -6 16 0 44 27 101 96 64 78 81 93 91
82 14 -15 529 -554 585 -611 l37 -39 304 408 c361 484 332 444 322 443 -4 0
-30 -9 -58 -19z"/>
<path d="M2009 513 c-195 -262 -355 -480 -357 -485 -2 -4 19 -8 47 -8 l52 0
315 422 c173 233 318 424 322 425 6 2 540 -717 607 -817 l20 -30 135 1 135 1
-100 14 c-73 10 -103 18 -113 31 -13 19 -43 58 -426 556 -135 174 -253 328
-264 341 l-19 25 -354 -476z"/>
<path d="M980 655 c0 -8 9 -15 20 -15 11 0 20 7 20 15 0 8 -9 15 -20 15 -11 0
-20 -7 -20 -15z"/>
<path d="M1040 655 c0 -8 9 -15 20 -15 11 0 20 7 20 15 0 8 -9 15 -20 15 -11
0 -20 -7 -20 -15z"/>
<path d="M980 600 c0 -13 7 -20 20 -20 13 0 20 7 20 20 0 13 -7 20 -20 20 -13
0 -20 -7 -20 -20z"/>
<path d="M1040 600 c0 -13 7 -20 20 -20 13 0 20 7 20 20 0 13 -7 20 -20 20
-13 0 -20 -7 -20 -20z"/>
<path d="M650 553 c1 -5 85 -125 189 -268 l187 -260 270 -3 c367 -3 357 -22
127 229 l-178 194 -280 57 c-294 59 -315 63 -315 51z"/>
<path d="M425 277 c-87 -122 -159 -223 -159 -224 -1 -1 -46 -8 -101 -16 l-100
-14 130 -1 130 -1 140 204 c77 113 145 213 152 222 10 15 8 21 -11 35 l-23 17
-158 -222z"/>
<path d="M2272 403 c3 -36 5 -38 41 -41 l37 -3 0 40 0 41 -41 0 -40 0 3 -37z"/>
<path d="M2400 400 l0 -40 40 0 40 0 0 40 0 40 -40 0 -40 0 0 -40z"/>
<path d="M2272 283 c3 -36 5 -38 41 -41 l37 -3 0 40 0 41 -41 0 -40 0 3 -37z"/>
<path d="M2400 280 l0 -40 40 0 40 0 0 40 0 40 -40 0 -40 0 0 -40z"/>
<path d="M610 205 c0 -20 5 -25 25 -25 20 0 25 5 25 25 0 20 -5 25 -25 25 -20
0 -25 -5 -25 -25z"/>
<path d="M690 205 c0 -18 5 -25 20 -25 15 0 20 7 20 25 0 18 -5 25 -20 25 -15
0 -20 -7 -20 -25z"/>
<path d="M610 135 c0 -20 5 -25 25 -25 20 0 25 5 25 25 0 20 -5 25 -25 25 -20
0 -25 -5 -25 -25z"/>
<path d="M690 135 c0 -18 5 -25 20 -25 15 0 20 7 20 25 0 18 -5 25 -20 25 -15
0 -20 -7 -20 -25z"/>
</g>
</svg>
